<svg xmlns="http://www.w3.org/2000/svg" width="17" height="19" viewBox="0 0 17 19">
    <path fill="#AC92EC" fill-rule="nonzero" d="M14.253 8.058H12.88a.698.698 0 0 0-.687.708v7.401c0 .39-.308.708-.687.708H9.412v.023a1.367 1.367 0 0 0-1.202-.73c-.758 0-1.373.633-1.373 1.416 0 .782.615 1.416 1.373 1.416.517 0 .968-.295 1.202-.73v.022h2.094c1.136 0 2.06-.953 2.06-2.125v-.035h.687c1.515 0 2.747-1.271 2.747-2.833V10.89c0-1.562-1.232-2.833-2.747-2.833zm1.374 5.24c0 .782-.617 1.417-1.374 1.417h-.687V9.474h.687c.757 0 1.374.636 1.374 1.417v2.408zM4.12 7.189H2.763c.23-3.222 2.845-5.772 6.027-5.772 2.518 0 4.796 1.636 5.67 4.07a.681.681 0 0 0 .882.42.715.715 0 0 0 .406-.91 7.606 7.606 0 0 0-2.674-3.592A7.216 7.216 0 0 0 8.79 0C6.809 0 4.946.796 3.546 2.24A7.717 7.717 0 0 0 1.374 7.57 2.85 2.85 0 0 0 0 10.021v2.408c0 1.562 1.232 2.833 2.747 2.833H4.12c.38 0 .687-.317.687-.708V7.897a.698.698 0 0 0-.687-.709zm-.686 6.658h-.687c-.757 0-1.374-.636-1.374-1.417v-2.408c0-.78.617-1.416 1.374-1.416h.687v5.24z"/>
</svg>
