<svg xmlns="http://www.w3.org/2000/svg" width="22" height="22" viewBox="0 0 22 22">
    <path fill="#A0D468" fill-rule="evenodd" stroke="#FFF" stroke-width=".5" d="M2.127 6.556H4.38V1H2.127v5.556zM16.775 11H14.52v3.333h2.254c2.628 0 2.628-3.333 0-3.333zm-4.507 0H3.254v3.333c0 2.455 2.018 4.445 4.507 4.445s4.507-1.99 4.507-4.445V11zm4.507 5.556h-2.647A6.75 6.75 0 0 1 7.76 21C4.026 21 1 18.016 1 14.333V8.778h15.775c5.633 0 5.633 7.778 0 7.778zm-5.634-10h2.253V1h-2.253v5.556zm-4.507 0h2.253V1H6.634v5.556z"/>
</svg>
