<svg xmlns="http://www.w3.org/2000/svg" width="15" height="11" viewBox="0 0 15 11">
    <g fill="#B5B8BD" fill-rule="nonzero">
        <path d="M13.15.022H1.832C.822.022 0 .812 0 1.784v7.44c0 .973.821 1.763 1.832 1.763h11.315c1.01 0 1.831-.79 1.831-1.762V1.787C14.981.815 14.16.022 13.15.022zm.995 9.203c0 .527-.447.957-.995.957H1.832c-.549 0-.995-.43-.995-.957V1.787c0-.528.446-.957.995-.957h11.315c.548 0 .995.43.995.957v7.438h.003z"/>
        <path d="M9.446 5.412l3.664-3.16a.394.394 0 0 0 .03-.57.432.432 0 0 0-.591-.029L7.497 6.014l-.986-.846c-.003-.003-.006-.006-.006-.01a.614.614 0 0 0-.068-.056L2.427 1.65a.43.43 0 0 0-.592.033.391.391 0 0 0 .034.57l3.706 3.186-3.69 3.324a.393.393 0 0 0-.02.57.429.429 0 0 0 .592.02l3.748-3.372 1.016.874a.428.428 0 0 0 .558-.003l1.044-.9 3.726 3.404c.08.074.186.11.288.11.111 0 .22-.041.303-.125a.393.393 0 0 0-.015-.57L9.446 5.413z"/>
    </g>
</svg>
