<?xml version="1.0" encoding="UTF-8"?>
<svg width="10px" height="8px" viewBox="0 0 10 8" version="1.1" xmlns="http://www.w3.org/2000/svg" xmlns:xlink="http://www.w3.org/1999/xlink">
    <!-- Generator: Sketch 51.3 (57544) - http://www.bohemiancoding.com/sketch -->
    <title>Check Copy 4</title>
    <desc>Created with Sketch.</desc>
    <defs></defs>
    <g id="Final" stroke="none" stroke-width="1" fill="none" fill-rule="evenodd">
        <g id="Pricing-Page-Enterprise-Edition-Retro" transform="translate(-721.000000, -420.000000)" fill="#000000">
            <g id="3" transform="translate(639.000000, 268.000000)">
                <path d="M92,153.56229 C92,153.741864 91.9397855,153.8945 91.8193548,154.020202 L86.2709677,159.811448 C86.150537,159.93715 86.0043019,160 85.8322581,160 C85.6602142,160 85.5139791,159.93715 85.3935484,159.811448 L82.1806452,156.457912 C82.0602145,156.33221 82,156.179574 82,156 C82,155.820426 82.0602145,155.66779 82.1806452,155.542088 L83.0580645,154.626263 C83.1784952,154.500561 83.3247303,154.43771 83.4967742,154.43771 C83.6688181,154.43771 83.8150532,154.500561 83.9354839,154.626263 L85.8322581,156.612795 L90.0645161,152.188552 C90.1849468,152.06285 90.3311819,152 90.5032258,152 C90.6752697,152 90.8215048,152.06285 90.9419355,152.188552 L91.8193548,153.104377 C91.9397855,153.230079 92,153.382715 92,153.56229 Z" id="Check-Copy-4"></path>
            </g>
        </g>
    </g>
</svg>