<svg xmlns="http://www.w3.org/2000/svg" width="14" height="21" viewBox="0 0 14 21">
    <path fill="#B5B8BD" fill-rule="evenodd" d="M9.43 20.864H5.06c-2.386 0-4.328-1.789-4.328-3.989V4.021C.732 1.82 2.674.03 5.06.03h4.37c2.387 0 4.328 1.79 4.328 3.99v12.854c0 2.2-1.941 3.99-4.328 3.99zm-4.37-.886h4.37c1.898 0 3.441-1.392 3.441-3.103v-.673H1.62v.673c0 1.71 1.544 3.103 3.441 3.103zm-3.44-4.663H12.87V4.021H1.62v11.294zM9.43.918H5.06c-1.555 0-2.872.936-3.296 2.216h10.962C12.302 1.854 10.986.918 9.43.918zm-.299 17.656H5.36v-.886H9.13v.886z"/>
</svg>
