<svg xmlns="http://www.w3.org/2000/svg" width="12" height="13" viewBox="0 0 12 13">
    <path fill="#B5B8BD" fill-rule="nonzero" d="M5.961 5.923A2.978 2.978 0 0 1 3 2.96 2.978 2.978 0 0 1 5.961 0a2.978 2.978 0 0 1 2.962 2.961A2.978 2.978 0 0 1 5.96 5.923zm0-4.99a2.078 2.078 0 0 0-2.069 2.069c0 1.136.934 2.069 2.07 2.069A2.078 2.078 0 0 0 8.03 3.002 2.078 2.078 0 0 0 5.961.933zm5.033 11.193l-.04-.081c0-.65-.123-1.258-.366-1.988-.203-.568-.527-1.055-1.095-1.582-.487-.568-1.177-.893-1.623-1.096a5.139 5.139 0 0 0-1.907-.365c-.608 0-1.217.122-1.947.365-.568.203-1.055.528-1.582 1.096-.568.486-.892 1.176-1.095 1.622a5.139 5.139 0 0 0-.365 1.907v.081l-.082.04H0v-.08c0-.852.162-1.623.487-2.313.365-.811.77-1.42 1.298-1.988.446-.486.933-.852 1.501-1.054.406-.244.811-.365 1.258-.487-.041-.04-.082-.04-.122-.081L4.503 6c.081.04.122.081.203.122.04 0 .081.04.122.04l.283.081h-.04c.284.082.608.122.974.122.405 0 .81-.081 1.135-.243h.081a6.841 6.841 0 0 1 1.461.527c.406.203 1.014.568 1.501 1.055.65.69 1.055 1.298 1.298 1.988.325.649.487 1.42.487 2.271v.082l-.122.08h-.892z"/>
</svg>
